<?xml version="1.0" encoding="utf-8"?>
<!-- Generator: Adobe Illustrator 28.0.0, SVG Export Plug-In . SVG Version: 6.00 Build 0)  -->
<svg version="1.1" id="Layer_1" xmlns="http://www.w3.org/2000/svg" xmlns:xlink="http://www.w3.org/1999/xlink" x="0px" y="0px"
	 viewBox="0 0 2000 2000" style="enable-background:new 0 0 2000 2000;" xml:space="preserve">
<style type="text/css">
	.st0{fill:#A16207;}
</style>
<g>
	<g>
		<path class="st0" d="M329.03,1709.16c-28.83,0-57.67,0-86.5,0c-108.44-30.57-163.59-108.48-189.47-212.58
			c-13.22-53.17-21.03-107.01-21.06-161.86c-0.08-155.77,28.97-307.43,66.53-457.65c31.75-126.96,75.79-249.51,142.76-362.71
			c58.41-98.73,138.27-171.8,250.31-206.05c88.78-27.14,176.44-20.3,264.47,4.22c87.09,24.26,175.01,44.46,266.57,39.93
			c82.34-4.07,161.89-23.41,241.44-43.01c109.65-27.02,216.69-24.34,318.44,30.31c86.83,46.64,145.53,119.69,190.31,205.42
			c90.27,172.82,136.15,359.24,169.15,549.68c11.25,64.94,18.93,130.32,26.03,195.79c0,30.33,0,60.65,0,90.98
			c-2.7,20.18-4.86,40.46-8.2,60.53c-21.23,127.37-72.8,231.02-210.33,266.99c-25.8,0-51.6,0-77.4,0
			c-101.89-22.18-177.17-84.9-239.05-163.75c-60.88-77.57-137.98-124.83-234.29-139.37c-123.65-18.67-248.08-14.72-372.06-3.46
			c-111.12,10.1-201.15,58.29-270.06,149.09C498.77,1627.88,425.04,1685.77,329.03,1709.16z M759.44,925.88
			c19.61-1.2,39.39,1.51,58.84-3.4c27.81-7.03,42.88-25.44,41.62-51.43c-1.35-27.83-17.73-44.11-47.71-48.29
			c-29.4-4.11-58.92-3.75-88.48-3.79c-42.43-0.05-53.58-11.58-54.46-53.76c-0.65-30.96,3.32-62.16-3.38-92.85
			c-6.61-30.25-22.57-42.3-53.1-41.13c-27.09,1.04-41.13,14.44-46.47,43.41c-5.55,30.07-3.33,60.39-3.65,90.63
			c-0.43,40.23-13.27,53.72-52.95,53.59c-31.1-0.1-62.13,0.63-93.02,4.25c-25.42,2.98-40.32,17.5-43.79,41.72
			c-4.73,33.12,17.4,58.06,55.29,60.18c26.45,1.49,53.03,0.93,79.55,0.9c42.4-0.06,54.38,11.54,54.96,53.27
			c0.43,30.99-1.71,62.04,3.52,92.93c3.03,17.89,11.72,30.85,27.91,38.79c35.98,17.64,71.23-5.88,74.29-51.12
			c1.94-28.66,0.3-57.54,1.27-86.28c1.03-30.64,15.94-45.62,46.58-47.42C730.6,925.24,745.03,925.94,759.44,925.88z M1388.84,696.72
			c0.45-34.75-32-67.09-68.55-68.33c-36.29-1.23-69.48,30.43-69.7,66.46c-0.22,36.61,32.24,70.6,68.42,71.64
			C1353.71,767.5,1388.37,732.87,1388.84,696.72z M1319.11,1116.52c37,0.53,68.99-30.57,69.03-67.11
			c0.04-34.95-35.22-70.63-70.18-71.03c-34.4-0.39-67.16,33.7-67.33,70.07C1250.46,1084.94,1281.69,1115.98,1319.11,1116.52z
			 M1427.08,871.36c0.3,36.9,35.42,72.14,71.36,71.6c31.82-0.48,66.84-36.93,66.65-69.37c-0.2-34.06-36.85-69.09-71.92-68.74
			C1456.26,805.23,1426.78,834.89,1427.08,871.36z M1076.83,872.8c0.29,38.52,31.81,70.26,69.01,69.49
			c34.44-0.72,64.99-33.42,64.65-69.2c-0.37-37.95-32.17-69.26-69.63-68.55C1104.67,805.23,1076.54,835.21,1076.83,872.8z"/>
	</g>
</g>
</svg>
